<?xml version="1.0" encoding="UTF-8"?>
<svg version="1.1" xmlns="http://www.w3.org/2000/svg" width="500" height="500">
<path d="M0 0 C165 0 330 0 500 0 C500 165 500 330 500 500 C335 500 170 500 0 500 C0 335 0 170 0 0 Z " fill="#D1D6DE" transform="translate(0,0)"/>
<path d="M0 0 C0.89589844 0.70382813 1.79179687 1.40765625 2.71484375 2.1328125 C3.43542969 2.67164063 4.15601563 3.21046875 4.8984375 3.765625 C18.73699143 14.84760581 28.62150982 32.02267666 32.71484375 49.1328125 C32.99070312 50.05449219 33.2665625 50.97617188 33.55078125 51.92578125 C37.82625528 67.39985928 36.76523987 83.98162415 31.71484375 99.1328125 C32.37484375 99.3390625 33.03484375 99.5453125 33.71484375 99.7578125 C45.9588234 105.36963651 54.70945258 116.92787626 59.97265625 129.0234375 C65.46664421 144.31439701 63.78457834 161.51784187 57.21484375 176.1953125 C49.08336565 191.46711839 35.88537019 200.86838873 19.71484375 206.1328125 C14.21468075 207.12655255 8.90733458 207.26857441 3.34274292 207.24201965 C1.95708041 207.24140936 1.95708041 207.24140936 0.54342473 207.24078673 C-2.54155377 207.2380967 -5.62646321 207.22809152 -8.71142578 207.21801758 C-10.92778974 207.21442003 -13.14415436 207.21121546 -15.36051941 207.20837402 C-21.37526944 207.19901232 -27.38997973 207.18267887 -33.40470743 207.16400361 C-37.16594044 207.15235003 -40.92717512 207.14168761 -44.68841171 207.13126183 C-55.11825281 207.10183721 -65.54808243 207.07020913 -75.97789192 207.03104115 C-78.67992268 207.02092225 -81.38195346 207.01081055 -84.08398438 207.00073242 C-84.75548538 206.99822555 -85.42698639 206.99571867 -86.11883591 206.99313583 C-96.9895307 206.9530125 -107.86019177 206.92981317 -118.73094608 206.91375379 C-129.9127646 206.89696621 -141.09447659 206.86487796 -152.27621734 206.81886977 C-158.5458895 206.79343395 -164.81542137 206.77444744 -171.08514786 206.77149391 C-176.98681877 206.76832965 -182.88812514 206.74623081 -188.78968239 206.70993805 C-190.94825853 206.69987033 -193.10687839 206.69647499 -195.26547432 206.70046806 C-214.99642605 206.72995801 -231.12278569 203.6657126 -246 189.54296875 C-258.15824729 176.71965494 -262.854701 161.24589742 -262.5234375 143.86328125 C-261.62013731 129.72145044 -254.79099151 115.76142096 -244.28515625 106.1328125 C-233.15426394 96.84835929 -220.97283718 90.60825247 -206.28515625 91.1328125 C-206.19234375 89.2765625 -206.19234375 89.2765625 -206.09765625 87.3828125 C-204.52682833 73.83972854 -196.1805392 61.60334028 -185.89453125 52.984375 C-172.29987286 43.3378659 -157.47839909 40.33201198 -140.97265625 42.6328125 C-140.08578125 42.7978125 -139.19890625 42.9628125 -138.28515625 43.1328125 C-138.19234375 42.29105469 -138.09953125 41.44929688 -138.00390625 40.58203125 C-137.18572225 36.65563736 -135.68386825 33.43577806 -133.78515625 29.9453125 C-133.43130859 29.29038818 -133.07746094 28.63546387 -132.71289062 27.96069336 C-129.2510401 21.75315885 -125.0714087 16.38580942 -120.28515625 11.1328125 C-119.34929687 10.07513672 -119.34929687 10.07513672 -118.39453125 8.99609375 C-107.84553163 -2.28424408 -93.15563038 -10.85717201 -78.28515625 -14.8671875 C-76.81755859 -15.28484375 -76.81755859 -15.28484375 -75.3203125 -15.7109375 C-49.09341634 -22.32121705 -21.5663359 -16.04557147 0 0 Z " fill="#D1D6DE" transform="translate(347.28515625,141.8671875)"/>
<path d="M0 0 C0.89589844 0.70382813 1.79179687 1.40765625 2.71484375 2.1328125 C3.43542969 2.67164063 4.15601563 3.21046875 4.8984375 3.765625 C18.73699143 14.84760581 28.62150982 32.02267666 32.71484375 49.1328125 C32.99070312 50.05449219 33.2665625 50.97617188 33.55078125 51.92578125 C37.82625528 67.39985928 36.76523987 83.98162415 31.71484375 99.1328125 C32.37484375 99.3390625 33.03484375 99.5453125 33.71484375 99.7578125 C45.9588234 105.36963651 54.70945258 116.92787626 59.97265625 129.0234375 C65.46664421 144.31439701 63.78457834 161.51784187 57.21484375 176.1953125 C49.08336565 191.46711839 35.88537019 200.86838873 19.71484375 206.1328125 C14.21468075 207.12655255 8.90733458 207.26857441 3.34274292 207.24201965 C1.95708041 207.24140936 1.95708041 207.24140936 0.54342473 207.24078673 C-2.54155377 207.2380967 -5.62646321 207.22809152 -8.71142578 207.21801758 C-10.92778974 207.21442003 -13.14415436 207.21121546 -15.36051941 207.20837402 C-21.37526944 207.19901232 -27.38997973 207.18267887 -33.40470743 207.16400361 C-37.16594044 207.15235003 -40.92717512 207.14168761 -44.68841171 207.13126183 C-55.11825281 207.10183721 -65.54808243 207.07020913 -75.97789192 207.03104115 C-78.67992268 207.02092225 -81.38195346 207.01081055 -84.08398438 207.00073242 C-84.75548538 206.99822555 -85.42698639 206.99571867 -86.11883591 206.99313583 C-96.9895307 206.9530125 -107.86019177 206.92981317 -118.73094608 206.91375379 C-129.9127646 206.89696621 -141.09447659 206.86487796 -152.27621734 206.81886977 C-158.5458895 206.79343395 -164.81542137 206.77444744 -171.08514786 206.77149391 C-176.98681877 206.76832965 -182.88812514 206.74623081 -188.78968239 206.70993805 C-190.94825853 206.69987033 -193.10687839 206.69647499 -195.26547432 206.70046806 C-214.99642605 206.72995801 -231.12278569 203.6657126 -246 189.54296875 C-258.15824729 176.71965494 -262.854701 161.24589742 -262.5234375 143.86328125 C-261.62013731 129.72145044 -254.79099151 115.76142096 -244.28515625 106.1328125 C-233.15426394 96.84835929 -220.97283718 90.60825247 -206.28515625 91.1328125 C-206.19234375 89.2765625 -206.19234375 89.2765625 -206.09765625 87.3828125 C-204.52682833 73.83972854 -196.1805392 61.60334028 -185.89453125 52.984375 C-172.29987286 43.3378659 -157.47839909 40.33201198 -140.97265625 42.6328125 C-140.08578125 42.7978125 -139.19890625 42.9628125 -138.28515625 43.1328125 C-138.19234375 42.29105469 -138.09953125 41.44929688 -138.00390625 40.58203125 C-137.18572225 36.65563736 -135.68386825 33.43577806 -133.78515625 29.9453125 C-133.43130859 29.29038818 -133.07746094 28.63546387 -132.71289062 27.96069336 C-129.2510401 21.75315885 -125.0714087 16.38580942 -120.28515625 11.1328125 C-119.34929687 10.07513672 -119.34929687 10.07513672 -118.39453125 8.99609375 C-107.84553163 -2.28424408 -93.15563038 -10.85717201 -78.28515625 -14.8671875 C-76.81755859 -15.28484375 -76.81755859 -15.28484375 -75.3203125 -15.7109375 C-49.09341634 -22.32121705 -21.5663359 -16.04557147 0 0 Z M-106.28515625 16.1328125 C-106.91550781 16.64972656 -107.54585937 17.16664063 -108.1953125 17.69921875 C-118.4122444 26.98522291 -126.27722453 41.73384394 -129.28515625 55.1328125 C-129.28515625 56.4528125 -129.28515625 57.7728125 -129.28515625 59.1328125 C-129.93742187 58.85566406 -130.5896875 58.57851562 -131.26171875 58.29296875 C-132.13570313 57.93074219 -133.0096875 57.56851563 -133.91015625 57.1953125 C-134.76867187 56.83566406 -135.6271875 56.47601563 -136.51171875 56.10546875 C-147.24467487 52.34137569 -158.91275494 53.03950682 -169.24609375 57.52734375 C-180.60971652 63.53049151 -188.52508257 72.85005172 -192.640625 85.0390625 C-193.88846433 91.02869127 -193.5809567 97.04425329 -193.28515625 103.1328125 C-193.86370361 103.1421582 -194.44225098 103.15150391 -195.03833008 103.16113281 C-212.0545782 103.50650289 -225.07332904 105.38672045 -237.97265625 117.3828125 C-247.12542094 127.06648002 -250.99378263 138.58222935 -250.6328125 151.796875 C-249.62179147 161.49813301 -246.17971536 169.45693059 -240.28515625 177.1328125 C-239.70765625 177.9990625 -239.13015625 178.8653125 -238.53515625 179.7578125 C-230.25892941 188.49382972 -220.09414891 193.18564544 -208.12262142 193.59007728 C-203.20012525 193.66986923 -198.28010025 193.6584445 -193.35717773 193.63452148 C-191.13535216 193.63830873 -188.91352894 193.64381211 -186.69171143 193.65089417 C-180.68145132 193.66481214 -174.67147865 193.65370487 -168.66123462 193.63718295 C-162.35985278 193.62329351 -156.05848697 193.6297969 -149.75709534 193.63331604 C-139.17794406 193.63601488 -128.59889357 193.62265825 -118.01977539 193.59936523 C-107.15319604 193.57544225 -96.28676698 193.56836474 -85.42016602 193.57885742 C-72.2970594 193.59150641 -59.17402802 193.58895687 -46.05092049 193.57319832 C-41.04916827 193.56745102 -36.04746636 193.56751131 -31.04571342 193.57226372 C-25.15310464 193.57704754 -19.26070297 193.56687344 -13.36813354 193.54530907 C-11.20989238 193.53976045 -9.05163124 193.53925814 -6.89338875 193.54426193 C-3.9391915 193.55025054 -0.98561994 193.53764119 1.96852112 193.52049255 C3.23844142 193.52950762 3.23844142 193.52950762 4.53401667 193.53870481 C16.80969252 193.40981883 27.79704801 188.47425171 36.796875 180.2109375 C46.73364928 169.44441221 49.42832258 158.62264957 48.9921875 144.4453125 C48.36284244 132.3284616 42.66164978 122.59513212 33.96484375 114.2578125 C29.14479776 110.14007383 22.33862011 105.1328125 15.71484375 105.1328125 C16.05257813 104.31039062 16.3903125 103.48796875 16.73828125 102.640625 C24.27200232 83.78454857 25.5509221 64.16868992 17.88525391 45.06542969 C13.8334048 35.63527248 8.6915104 27.71003471 1.71484375 20.1328125 C1.17601562 19.50246094 0.6371875 18.87210938 0.08203125 18.22265625 C-12.86734145 3.93930295 -32.94572061 -2.79289867 -51.6875 -4.10546875 C-72.28488358 -4.53790001 -90.44924727 3.07419616 -106.28515625 16.1328125 Z " fill="#474CDE" transform="translate(347.28515625,141.8671875)"/>
<path d="M0 0 C3.60249028 0.60666937 5.59015611 1.90905121 8.25 4.37890625 C11.54501432 10.23670949 12.74321961 16.87089731 14.25 23.37890625 C14.58 23.37890625 14.91 23.37890625 15.25 23.37890625 C15.63091797 21.49945313 15.63091797 21.49945313 16.01953125 19.58203125 C16.36664905 17.9308763 16.71433514 16.27984074 17.0625 14.62890625 C17.22814453 13.80390625 17.39378906 12.97890625 17.56445312 12.12890625 C19.28785693 4.06467712 19.28785693 4.06467712 22.25 1.37890625 C26.45806997 -0.08790671 30.34316459 0.10514462 34.5625 1.37890625 C39.00088686 4.68189182 40.88167034 8.74781024 42.07128906 14.01586914 C42.21791992 15.28164795 42.36455078 16.54742676 42.515625 17.8515625 C42.59874939 18.53770126 42.68187378 19.22384003 42.76751709 19.93077087 C43.02622849 22.09956897 43.26302015 24.27013883 43.5 26.44140625 C43.67313261 27.90055103 43.84760107 29.35953796 44.0234375 30.81835938 C45.54353148 43.75914007 45.54353148 43.75914007 45.25 48.37890625 C43.13794394 50.88697282 41.53235407 52.13005338 38.27734375 52.76171875 C34.74389872 52.95985585 32.66623812 52.68841664 29.8125 50.56640625 C27.31166258 47.06523386 27.03254613 43.88125216 26.6875 39.69140625 C26.60371094 38.69753906 26.51992187 37.70367187 26.43359375 36.6796875 C26.34271484 35.54080078 26.34271484 35.54080078 26.25 34.37890625 C25.85167969 36.09400391 25.85167969 36.09400391 25.4453125 37.84375 C25.08897547 39.33473916 24.73218096 40.82561904 24.375 42.31640625 C24.20097656 43.07115234 24.02695313 43.82589844 23.84765625 44.60351562 C23.37755935 46.5448417 22.8195703 48.46440169 22.25 50.37890625 C19.81045342 51.59867954 18.09694151 51.58044438 15.375 51.62890625 C14.51132813 51.6546875 13.64765625 51.68046875 12.7578125 51.70703125 C9.56519123 51.2893051 8.43137277 50.77092661 6.25 48.37890625 C5.32333402 45.6017684 4.60569727 43.03371517 4 40.19140625 C3.82726562 39.44181641 3.65453125 38.69222656 3.4765625 37.91992188 C3.05376576 36.0760583 2.6500014 34.22784888 2.25 32.37890625 C2.08564453 34.29316406 2.08564453 34.29316406 1.91796875 36.24609375 C1.75853738 37.91543397 1.59834145 39.5847013 1.4375 41.25390625 C1.36724609 42.09566406 1.29699219 42.93742187 1.22460938 43.8046875 C1.14404297 44.61035156 1.06347656 45.41601562 0.98046875 46.24609375 C0.91239014 46.98972168 0.84431152 47.73334961 0.77416992 48.49951172 C0.25 50.37890625 0.25 50.37890625 -2.75 52.37890625 C-7.09866829 53.06764561 -10.63030718 53.19068354 -14.25 50.56640625 C-19.39203761 43.06760141 -16.34385173 32.74700743 -14.8125 24.40820312 C-14.6784375 23.695271 -14.544375 22.98233887 -14.40625 22.24780273 C-13.99818241 20.05664653 -13.61589053 17.86193099 -13.234375 15.66601562 C-12.97551285 14.26143137 -12.71514914 12.85712283 -12.453125 11.453125 C-12.22270508 10.19072998 -11.99228516 8.92833496 -11.75488281 7.62768555 C-9.73281121 1.09034182 -6.38383908 -0.3254918 0 0 Z " fill="#474CDE" transform="translate(228.75,255.62109375)"/>
<path d="M0 0 C5.73302146 4.99607353 9.62214981 10.59352176 10.27734375 18.234375 C10.5046653 26.70892252 9.62652197 33.37732134 5.4375 40.75 C-1.91579348 47.53765552 -10.63612006 49.43004378 -20.34765625 49.33984375 C-27.30951442 48.69205588 -32.63626615 45.78601301 -37.4375 40.75 C-43.19185419 33.15360041 -44.17519469 24.29985798 -43 15 C-40.7766219 7.59903308 -36.40436911 2.24893347 -30 -2 C-20.82547268 -6.13753193 -8.52721395 -5.3501149 0 0 Z " fill="#464BDE" transform="translate(318,259)"/>
<path d="M0 0 C5.58694341 -0.30995525 10.03989565 0.05476756 14.609375 3.4609375 C24.58984718 13.727825 28.53032039 34.40529978 29.37890625 48.28125 C26.82754503 51.49102702 24.30342707 52.50384678 20.37890625 53.21875 C16.54731904 53.52961462 14.40032495 52.76947716 11.37890625 50.28125 C9.37890625 47.28125 9.37890625 47.28125 9.37890625 44.28125 C5.74890625 44.28125 2.11890625 44.28125 -1.62109375 44.28125 C-1.72421875 45.395 -1.82734375 46.50875 -1.93359375 47.65625 C-2.16046875 48.8525 -2.38734375 50.04875 -2.62109375 51.28125 C-6.31357937 53.74290708 -9.33620778 54.08971905 -13.62109375 53.28125 C-17.14597742 51.31457671 -19.32230852 49.17760569 -20.62109375 45.28125 C-21.56932295 37.02695978 -19.35348033 29.87103035 -16.80859375 22.09375 C-16.45216797 20.95744141 -16.09574219 19.82113281 -15.72851562 18.65039062 C-12.01448229 6.96311142 -12.01448229 6.96311142 -9.62109375 2.28125 C-6.25014873 0.66600551 -3.6745277 0.39428613 0 0 Z " fill="#474CDE" transform="translate(145.62109375,254.71875)"/>
<path d="M0 0 C0.77617676 -0.01466309 1.55235352 -0.02932617 2.35205078 -0.04443359 C8.60979225 0.06676156 12.27119899 2.04269257 16.8125 6.4375 C18.3626384 9.53777681 17.89486673 11.29892646 16.875 14.5625 C15.0625 17 15.0625 17 12.875 18.5625 C10.8125 18.375 10.8125 18.375 8.875 17.5625 C5.99288698 16.60179566 4.17649956 16.45668117 1.1875 16.5 C0.37925781 16.50902344 -0.42898438 16.51804687 -1.26171875 16.52734375 C-1.87660156 16.53894531 -2.49148438 16.55054688 -3.125 16.5625 C-3.125 17.5525 -3.125 18.5425 -3.125 19.5625 C-1.93003906 19.70945312 -1.93003906 19.70945312 -0.7109375 19.859375 C6.95653385 20.94140259 11.91637863 22.20406493 17.1875 28.1875 C20.3352386 32.61765063 20.59933434 36.21946905 19.875 41.5625 C18.18232157 46.27722871 15.52176261 49.62934011 11.125 52.0625 C2.89327982 55.15630087 -8.39684281 55.19052084 -16.5 51.75 C-19.14296487 50.37586886 -21.22039313 48.86747468 -23.125 46.5625 C-23.65610151 42.4654312 -23.510629 40.25959858 -21.5 36.625 C-19.125 34.5625 -19.125 34.5625 -16.3125 34.0625 C-12.57563721 34.64867456 -9.59340271 36.07604169 -6.125 37.5625 C-2.83214899 37.81519417 -2.83214899 37.81519417 -0.125 37.5625 C-0.125 36.5725 -0.125 35.5825 -0.125 34.5625 C-0.7540625 34.48773438 -1.383125 34.41296875 -2.03125 34.3359375 C-8.7113865 33.30977195 -13.31163312 31.37586688 -18.125 26.5625 C-21.47018842 21.85832879 -22.00310422 17.17429246 -21.125 11.5625 C-19.0793969 7.13035994 -16.13341436 3.93603227 -11.9375 1.48046875 C-7.95400262 0.18029946 -4.17023675 0.04951579 0 0 Z " fill="#474CDE" transform="translate(352.125,254.4375)"/>
<path d="M0 0 C0.79481277 0.00141495 1.58962555 0.0028299 2.40852356 0.00428772 C4.9455645 0.00988247 7.482517 0.02243397 10.01953125 0.03515625 C11.7402331 0.04017193 13.46093633 0.04473472 15.18164062 0.04882812 C19.39847155 0.05985018 23.61523641 0.07711119 27.83203125 0.09765625 C29.42892166 3.29143707 29.20552082 6.6228694 28.83203125 10.09765625 C27.55183413 13.04210963 26.57712362 14.57609159 23.95703125 16.41015625 C21.48946921 17.20848514 19.41105025 17.14447013 16.83203125 17.09765625 C16.83726807 17.7117334 16.84250488 18.32581055 16.84790039 18.95849609 C16.86895254 21.79653866 16.88177988 24.63456471 16.89453125 27.47265625 C16.90291016 28.43816406 16.91128906 29.40367187 16.91992188 30.3984375 C16.93586536 35.14959656 16.87379164 39.89398452 16.578125 44.63671875 C16.53228271 45.4251416 16.48644043 46.21356445 16.43920898 47.02587891 C15.61289252 49.84538895 14.32541586 50.63364537 11.83203125 52.09765625 C7.70589595 52.815245 6.19034126 52.3295039 2.64453125 50.03515625 C-0.52194231 47.44440515 -2.14042073 43.98855193 -3.16796875 40.09765625 C-3.51459554 36.10876533 -3.45230103 32.16007446 -3.35546875 28.16015625 C-3.34193359 27.09474609 -3.32839844 26.02933594 -3.31445312 24.93164062 C-3.27932019 22.32009234 -3.22552064 19.70880668 -3.16796875 17.09765625 C-6.79796875 17.09765625 -10.42796875 17.09765625 -14.16796875 17.09765625 C-15.89804443 13.6375049 -15.65149605 9.8809307 -15.16796875 6.09765625 C-11.28342923 -0.3319264 -6.93325124 -0.04635463 0 0 Z " fill="#474CDE" transform="translate(185.16796875,255.90234375)"/>
<path d="M0 0 C2.3125 1.5 2.3125 1.5 4 4 C4.59896377 7.60857183 4.25551239 10.89277966 3.4375 14.4375 C2 16 2 16 -1.4375 16.9375 C-5 17 -5 17 -6.875 15.6875 C-9.36422096 11.95366856 -9.62502278 8.39252121 -9 4 C-6.51474505 0.31814082 -4.41199243 -0.88239849 0 0 Z " fill="#CED3DE" transform="translate(304,273)"/>
<path d="M0 0 C2.49505962 2.49505962 2.35948376 3.67328888 2.625 7.125 C2.69976562 8.03507812 2.77453125 8.94515625 2.8515625 9.8828125 C2.90054688 10.58148438 2.94953125 11.28015625 3 12 C1.35 12 -0.3 12 -2 12 C-1.34 8.04 -0.68 4.08 0 0 Z " fill="#C5CADE" transform="translate(149,272)"/>
</svg>
