<svg id="visual" viewBox="0 0 960 540" width="960" height="540" xmlns="http://www.w3.org/2000/svg" xmlns:xlink="http://www.w3.org/1999/xlink" version="1.1"><g stroke-width="1" stroke-linejoin="bevel"><path d="M517.3 285L413.7 296L514.3 346Z" fill="#433c64" stroke="#d2d7df"></path><path d="M413.7 296L401.7 329L514.3 346Z" fill="#494296" stroke="#d2d7df"></path><path d="M517.3 285L425.7 207L413.7 296Z" fill="#4a44a8" stroke="#d2d7df"></path><path d="M413.7 296L330 323L401.7 329Z" fill="#4848cc" stroke="#d2d7df"></path><path d="M401.7 329L453.7 427L514.3 346Z" fill="#3a3744" stroke="#d2d7df"></path><path d="M288 247L330 323L413.7 296Z" fill="#433c64" stroke="#d2d7df"></path><path d="M401.7 329L321 487L453.7 427Z" fill="#3f3a54" stroke="#d2d7df"></path><path d="M618 268L525.3 181L517.3 285Z" fill="#4a44a8" stroke="#d2d7df"></path><path d="M517.3 285L525.3 181L425.7 207Z" fill="#4848cc" stroke="#d2d7df"></path><path d="M677 369L618 268L514.3 346Z" fill="#3f3a54" stroke="#d2d7df"></path><path d="M514.3 346L618 268L517.3 285Z" fill="#353535" stroke="#d2d7df"></path><path d="M453.7 427L559.3 466L514.3 346Z" fill="#4a46ba" stroke="#d2d7df"></path><path d="M618 268L627 210L525.3 181Z" fill="#484085" stroke="#d2d7df"></path><path d="M425.7 207L288 247L413.7 296Z" fill="#454ade" stroke="#d2d7df"></path><path d="M559.3 466L614 454L514.3 346Z" fill="#484085" stroke="#d2d7df"></path><path d="M618 268L782.7 256L627 210Z" fill="#3a3744" stroke="#d2d7df"></path><path d="M425.7 207L293 203L288 247Z" fill="#3a3744" stroke="#d2d7df"></path><path d="M290 118L293 203L425.7 207Z" fill="#454ade" stroke="#d2d7df"></path><path d="M614 454L677 369L514.3 346Z" fill="#433c64" stroke="#d2d7df"></path><path d="M537.3 72L421.7 94L525.3 181Z" fill="#484085" stroke="#d2d7df"></path><path d="M525.3 181L421.7 94L425.7 207Z" fill="#433c64" stroke="#d2d7df"></path><path d="M330 323L321 487L401.7 329Z" fill="#433c64" stroke="#d2d7df"></path><path d="M453.7 427L537.3 540L559.3 466Z" fill="#484085" stroke="#d2d7df"></path><path d="M193.3 416L321 487L330 323Z" fill="#433c64" stroke="#d2d7df"></path><path d="M224.3 183L235.3 284L288 247Z" fill="#433c64" stroke="#d2d7df"></path><path d="M288 247L235.3 284L330 323Z" fill="#4a46ba" stroke="#d2d7df"></path><path d="M321 487L399.7 540L453.7 427Z" fill="#4a46ba" stroke="#d2d7df"></path><path d="M559.3 466L609 540L614 454Z" fill="#3f3a54" stroke="#d2d7df"></path><path d="M399.7 540L537.3 540L453.7 427Z" fill="#4a44a8" stroke="#d2d7df"></path><path d="M610 87L537.3 72L525.3 181Z" fill="#484085" stroke="#d2d7df"></path><path d="M235.3 284L215.3 324L330 323Z" fill="#454ade" stroke="#d2d7df"></path><path d="M778.7 427L725.7 334L677 369Z" fill="#4a46ba" stroke="#d2d7df"></path><path d="M677 369L725.7 334L618 268Z" fill="#494296" stroke="#d2d7df"></path><path d="M627 210L610 87L525.3 181Z" fill="#4a46ba" stroke="#d2d7df"></path><path d="M778.7 427L677 369L614 454Z" fill="#4a44a8" stroke="#d2d7df"></path><path d="M321 487L336 540L399.7 540Z" fill="#3a3744" stroke="#d2d7df"></path><path d="M209.3 540L336 540L321 487Z" fill="#4848cc" stroke="#d2d7df"></path><path d="M300 0L290 118L421.7 94Z" fill="#4a46ba" stroke="#d2d7df"></path><path d="M421.7 94L290 118L425.7 207Z" fill="#4a44a8" stroke="#d2d7df"></path><path d="M293 203L224.3 183L288 247Z" fill="#4848cc" stroke="#d2d7df"></path><path d="M235.3 284L134.7 332L215.3 324Z" fill="#4a46ba" stroke="#d2d7df"></path><path d="M738.7 123L610 87L627 210Z" fill="#3a3744" stroke="#d2d7df"></path><path d="M537.3 540L609 540L559.3 466Z" fill="#3f3a54" stroke="#d2d7df"></path><path d="M290 118L224.3 183L293 203Z" fill="#4848cc" stroke="#d2d7df"></path><path d="M134.7 332L193.3 416L215.3 324Z" fill="#4848cc" stroke="#d2d7df"></path><path d="M215.3 324L193.3 416L330 323Z" fill="#3f3a54" stroke="#d2d7df"></path><path d="M782.7 256L749.7 179L627 210Z" fill="#494296" stroke="#d2d7df"></path><path d="M527.3 0L430.7 0L537.3 72Z" fill="#484085" stroke="#d2d7df"></path><path d="M537.3 72L430.7 0L421.7 94Z" fill="#4848cc" stroke="#d2d7df"></path><path d="M615 0L527.3 0L537.3 72Z" fill="#4a46ba" stroke="#d2d7df"></path><path d="M615 0L537.3 72L610 87Z" fill="#4a46ba" stroke="#d2d7df"></path><path d="M821.3 371L782.7 256L725.7 334Z" fill="#433c64" stroke="#d2d7df"></path><path d="M725.7 334L782.7 256L618 268Z" fill="#3f3a54" stroke="#d2d7df"></path><path d="M824.3 152L738.7 123L749.7 179Z" fill="#463e74" stroke="#d2d7df"></path><path d="M749.7 179L738.7 123L627 210Z" fill="#454ade" stroke="#d2d7df"></path><path d="M782.7 540L778.7 427L614 454Z" fill="#3f3a54" stroke="#d2d7df"></path><path d="M89.7 248L134.7 332L235.3 284Z" fill="#353535" stroke="#d2d7df"></path><path d="M300 0L211.3 89L290 118Z" fill="#353535" stroke="#d2d7df"></path><path d="M290 118L211.3 89L224.3 183Z" fill="#3f3a54" stroke="#d2d7df"></path><path d="M224.3 183L89.7 248L235.3 284Z" fill="#4848cc" stroke="#d2d7df"></path><path d="M193.3 416L209.3 540L321 487Z" fill="#3f3a54" stroke="#d2d7df"></path><path d="M145.7 458L209.3 540L193.3 416Z" fill="#353535" stroke="#d2d7df"></path><path d="M714.7 0L615 0L610 87Z" fill="#4a44a8" stroke="#d2d7df"></path><path d="M134.7 332L145.7 458L193.3 416Z" fill="#4848cc" stroke="#d2d7df"></path><path d="M430.7 0L300 0L421.7 94Z" fill="#463e74" stroke="#d2d7df"></path><path d="M778.7 427L821.3 371L725.7 334Z" fill="#3f3a54" stroke="#d2d7df"></path><path d="M782.7 256L821.3 249L749.7 179Z" fill="#463e74" stroke="#d2d7df"></path><path d="M821.3 371L821.3 249L782.7 256Z" fill="#494296" stroke="#d2d7df"></path><path d="M782.7 540L831.3 433L778.7 427Z" fill="#494296" stroke="#d2d7df"></path><path d="M778.7 427L831.3 433L821.3 371Z" fill="#4a46ba" stroke="#d2d7df"></path><path d="M821.3 371L960 265L821.3 249Z" fill="#494296" stroke="#d2d7df"></path><path d="M100.7 153L89.7 248L224.3 183Z" fill="#484085" stroke="#d2d7df"></path><path d="M134.7 332L0 350L145.7 458Z" fill="#4a46ba" stroke="#d2d7df"></path><path d="M609 540L782.7 540L614 454Z" fill="#4a46ba" stroke="#d2d7df"></path><path d="M821.3 249L824.3 152L749.7 179Z" fill="#353535" stroke="#d2d7df"></path><path d="M738.7 123L714.7 0L610 87Z" fill="#433c64" stroke="#d2d7df"></path><path d="M852.3 94L824.3 152L960 187Z" fill="#3f3a54" stroke="#d2d7df"></path><path d="M813.3 0L714.7 0L738.7 123Z" fill="#3a3744" stroke="#d2d7df"></path><path d="M211.3 89L100.7 153L224.3 183Z" fill="#484085" stroke="#d2d7df"></path><path d="M96.7 114L100.7 153L211.3 89Z" fill="#4a46ba" stroke="#d2d7df"></path><path d="M0 482L135.7 540L145.7 458Z" fill="#463e74" stroke="#d2d7df"></path><path d="M145.7 458L135.7 540L209.3 540Z" fill="#484085" stroke="#d2d7df"></path><path d="M0 202L0 305L89.7 248Z" fill="#3f3a54" stroke="#d2d7df"></path><path d="M176.3 0L96.7 114L211.3 89Z" fill="#4a46ba" stroke="#d2d7df"></path><path d="M300 0L176.3 0L211.3 89Z" fill="#463e74" stroke="#d2d7df"></path><path d="M960 187L824.3 152L821.3 249Z" fill="#433c64" stroke="#d2d7df"></path><path d="M824.3 152L852.3 94L738.7 123Z" fill="#494296" stroke="#d2d7df"></path><path d="M782.7 540L867.3 540L831.3 433Z" fill="#3f3a54" stroke="#d2d7df"></path><path d="M960 367L960 265L821.3 371Z" fill="#4848cc" stroke="#d2d7df"></path><path d="M852.3 94L813.3 0L738.7 123Z" fill="#3f3a54" stroke="#d2d7df"></path><path d="M0 202L89.7 248L100.7 153Z" fill="#494296" stroke="#d2d7df"></path><path d="M89.7 248L0 305L134.7 332Z" fill="#4a44a8" stroke="#d2d7df"></path><path d="M0 305L0 350L134.7 332Z" fill="#3a3744" stroke="#d2d7df"></path><path d="M0 96L0 202L100.7 153Z" fill="#4a44a8" stroke="#d2d7df"></path><path d="M0 96L100.7 153L96.7 114Z" fill="#4a46ba" stroke="#d2d7df"></path><path d="M176.3 0L94.7 0L96.7 114Z" fill="#3f3a54" stroke="#d2d7df"></path><path d="M960 367L821.3 371L831.3 433Z" fill="#454ade" stroke="#d2d7df"></path><path d="M852.3 94L960 0L813.3 0Z" fill="#3a3744" stroke="#d2d7df"></path><path d="M960 430L960 367L831.3 433Z" fill="#4a44a8" stroke="#d2d7df"></path><path d="M0 350L0 482L145.7 458Z" fill="#3f3a54" stroke="#d2d7df"></path><path d="M867.3 540L960 430L831.3 433Z" fill="#3f3a54" stroke="#d2d7df"></path><path d="M960 265L960 187L821.3 249Z" fill="#3a3744" stroke="#d2d7df"></path><path d="M94.7 0L0 96L96.7 114Z" fill="#454ade" stroke="#d2d7df"></path><path d="M0 482L0 540L135.7 540Z" fill="#494296" stroke="#d2d7df"></path><path d="M960 187L960 115L852.3 94Z" fill="#4a44a8" stroke="#d2d7df"></path><path d="M867.3 540L960 540L960 430Z" fill="#484085" stroke="#d2d7df"></path><path d="M94.7 0L0 0L0 96Z" fill="#484085" stroke="#d2d7df"></path><path d="M960 115L960 0L852.3 94Z" fill="#3f3a54" stroke="#d2d7df"></path></g></svg>